<svg xmlns="http://www.w3.org/2000/svg" width="39.14" height="44.2" viewBox="0 0 39.14 44.2">
  <g id="doc-file-format" transform="translate(-31.36)">
    <path id="Path_3091" data-name="Path 3091" d="M68.023,15.81H66.962V10.689a.758.758,0,0,0-.009-.1.851.851,0,0,0-.206-.561L58.226.3s-.005,0-.007-.006a.854.854,0,0,0-.173-.145c-.019-.012-.037-.023-.057-.034A.9.9,0,0,0,57.819.04L57.772.025a.862.862,0,0,0-.2-.025H36.631A1.735,1.735,0,0,0,34.9,1.733V15.81H33.837a2.477,2.477,0,0,0-2.477,2.477V31.17a2.478,2.478,0,0,0,2.477,2.477H34.9v8.819A1.735,1.735,0,0,0,36.631,44.2h28.6a1.735,1.735,0,0,0,1.733-1.733V33.648h1.061A2.478,2.478,0,0,0,70.5,31.17V18.288A2.477,2.477,0,0,0,68.023,15.81ZM36.631,1.733H56.707V10.6a.867.867,0,0,0,.867.867h7.655V15.81h-28.6Zm20.8,22.291c0,3.94-2.389,6.329-5.9,6.329-3.565,0-5.651-2.692-5.651-6.115,0-3.6,2.3-6.293,5.847-6.293C55.411,17.945,57.426,20.708,57.426,24.025ZM34.019,30.1V18.3a24.2,24.2,0,0,1,3.673-.25,7.73,7.73,0,0,1,4.92,1.283,5.318,5.318,0,0,1,2.033,4.528,6.1,6.1,0,0,1-2,4.867A8.626,8.626,0,0,1,37.1,30.282,23.535,23.535,0,0,1,34.019,30.1ZM65.229,42h-28.6V33.648h28.6ZM65.36,28.09a6.8,6.8,0,0,0,2.264-.392l.411,2.121a7.729,7.729,0,0,1-3.084.517c-4.153,0-6.293-2.585-6.293-6.008,0-4.1,2.923-6.382,6.559-6.382a7.086,7.086,0,0,1,2.96.535l-.553,2.157a5.869,5.869,0,0,0-2.282-.446,3.615,3.615,0,0,0-3.833,3.976A3.588,3.588,0,0,0,65.36,28.09Z" transform="translate(0 0)" fill="#fff"/>
    <path id="Path_3092" data-name="Path 3092" d="M103.132,253.58a3.409,3.409,0,0,0-3.738-3.774,5.563,5.563,0,0,0-1.217.106v7.776a4.936,4.936,0,0,0,.935.053C101.545,257.758,103.132,256.418,103.132,253.58Z" transform="translate(-61.49 -229.619)" fill="#fff"/>
    <path id="Path_3093" data-name="Path 3093" d="M247.032,253.4c0,2.328,1.093,3.968,2.892,3.968,1.816,0,2.856-1.728,2.856-4.038,0-2.134-1.022-3.967-2.874-3.967C248.091,249.365,247.032,251.093,247.032,253.4Z" transform="translate(-198.254 -229.213)" fill="#fff"/>
  </g>
</svg>
