<svg xmlns="http://www.w3.org/2000/svg" width="30" height="30" viewBox="0 0 30 30">
  <g id="Group_10421" data-name="Group 10421" transform="translate(-55 -58)">
    <g id="Path_2896" data-name="Path 2896" transform="translate(55 58)" fill="none">
      <path d="M15,0A15,15,0,1,1,0,15,15,15,0,0,1,15,0Z" stroke="none"/>
      <path d="M 15 1 C 11.26046943664551 1 7.744760513305664 2.456249237060547 5.100509643554688 5.100509643554688 C 2.456249237060547 7.744760513305664 1 11.26046943664551 1 15 C 1 18.73952865600586 2.456249237060547 22.25523948669434 5.100509643554688 24.89949035644531 C 7.744760513305664 27.54375076293945 11.26046943664551 29 15 29 C 18.73952865600586 29 22.25523948669434 27.54375076293945 24.89949035644531 24.89949035644531 C 27.54375076293945 22.25523948669434 29 18.73952865600586 29 15 C 29 11.26046943664551 27.54375076293945 7.744760513305664 24.89949035644531 5.100509643554688 C 22.25523948669434 2.456249237060547 18.73952865600586 1 15 1 M 15 0 C 23.28426933288574 0 30 6.715730667114258 30 15 C 30 23.28426933288574 23.28426933288574 30 15 30 C 6.715730667114258 30 0 23.28426933288574 0 15 C 0 6.715730667114258 6.715730667114258 0 15 0 Z" stroke="none" fill="#a54ee1"/>
    </g>
    <circle id="Ellipse_185" data-name="Ellipse 185" cx="11" cy="11" r="11" transform="translate(59 62)" fill="#a54ee1"/>
  </g>
</svg>
