<svg xmlns="http://www.w3.org/2000/svg" width="38.937" height="43.966" viewBox="0 0 38.937 43.966">
  <path id="Path_3372" data-name="Path 3372" d="M67.976,15.726H66.921V10.633a.742.742,0,0,0-.009-.1.846.846,0,0,0-.2-.558L58.23.295s-.005,0-.007-.006a.856.856,0,0,0-.172-.144C58.033.132,58.015.122,58,.111a.889.889,0,0,0-.17-.072c-.016,0-.03-.011-.046-.015a.86.86,0,0,0-.2-.025H36.748a1.726,1.726,0,0,0-1.724,1.724v14H33.968A2.464,2.464,0,0,0,31.5,18.19V31.005a2.465,2.465,0,0,0,2.464,2.464h1.056v8.772a1.726,1.726,0,0,0,1.724,1.724H65.2a1.726,1.726,0,0,0,1.724-1.724V33.47h1.056a2.465,2.465,0,0,0,2.464-2.464V18.191A2.465,2.465,0,0,0,67.976,15.726Zm-31.228-14H56.719v8.821a.862.862,0,0,0,.862.862H65.2v4.319H36.748ZM54.312,21.813a4.118,4.118,0,0,1-1.184,3.057,5.971,5.971,0,0,1-4.183,1.355,7.315,7.315,0,0,1-.994-.057v4.6H45.068V18.07A23.735,23.735,0,0,1,49,17.8a6.178,6.178,0,0,1,3.936,1.031A3.764,3.764,0,0,1,54.312,21.813ZM35.936,30.676l.325-2.349a4.78,4.78,0,0,0,1.489.23c1.223,0,1.987-.555,1.987-2.56V17.9h2.9v8.137c0,3.668-1.758,4.947-4.584,4.947A7.536,7.536,0,0,1,35.936,30.676Zm29.26,11.1H36.748V33.47H65.2v8.306Zm1.723-11.6a14.405,14.405,0,0,1-4.3.726,7.173,7.173,0,0,1-5.232-1.738,6.225,6.225,0,0,1-1.815-4.68c.018-4.279,3.132-6.723,7.354-6.723a8.861,8.861,0,0,1,3.572.63l-.611,2.33a7.138,7.138,0,0,0-3-.554c-2.425,0-4.258,1.376-4.258,4.164a4.215,4.215,0,0,0,5.481,4.03V25.671H62.125V23.4H66.92V30.18Z" transform="translate(-31.504)" fill="#fff"/>
</svg>
