<svg xmlns="http://www.w3.org/2000/svg" width="39.141" height="44.197" viewBox="0 0 39.141 44.197">
  <g id="pdf-file-format-symbol" transform="translate(-31.504)">
    <path id="Path_2981" data-name="Path 2981" d="M120.33,260.441c0-1.19-.826-1.9-2.285-1.9a4.994,4.994,0,0,0-1.209.115v3.822a4.534,4.534,0,0,0,.978.076C119.37,262.554,120.33,261.767,120.33,260.441Z" transform="translate(-78.485 -237.795)" fill="#fff"/>
    <path id="Path_2982" data-name="Path 2982" d="M257.681,259.019a6.094,6.094,0,0,0-1.326.115V267.6a5.312,5.312,0,0,0,1.018.059c2.649.019,4.378-1.44,4.378-4.532A3.712,3.712,0,0,0,257.681,259.019Z" transform="translate(-206.809 -238.235)" fill="#fff"/>
    <path id="Path_2983" data-name="Path 2983" d="M68.168,15.809H67.107V10.688a.746.746,0,0,0-.009-.1.85.85,0,0,0-.206-.561L58.371.3s-.005,0-.007-.006a.86.86,0,0,0-.173-.145c-.019-.012-.037-.023-.057-.034A.893.893,0,0,0,57.964.04c-.016,0-.03-.011-.047-.015a.865.865,0,0,0-.2-.025H36.776a1.735,1.735,0,0,0-1.733,1.733V15.809H33.981A2.477,2.477,0,0,0,31.5,18.286V31.168a2.478,2.478,0,0,0,2.477,2.477h1.061v8.818A1.735,1.735,0,0,0,36.776,44.2h28.6a1.736,1.736,0,0,0,1.733-1.733V33.646h1.061a2.478,2.478,0,0,0,2.477-2.477V18.286A2.477,2.477,0,0,0,68.168,15.809ZM36.776,1.734H56.851V10.6a.867.867,0,0,0,.867.867h7.656V15.81h-28.6ZM58.052,24.8A6.56,6.56,0,0,1,55.9,30.039a9.284,9.284,0,0,1-5.97,1.67,25.439,25.439,0,0,1-3.322-.192V18.806a26.185,26.185,0,0,1,3.956-.268,8.331,8.331,0,0,1,5.3,1.382A5.727,5.727,0,0,1,58.052,24.8Zm-22.6,6.779V18.806a24.054,24.054,0,0,1,3.956-.268,6.2,6.2,0,0,1,3.955,1.037,3.781,3.781,0,0,1,1.381,3,4.131,4.131,0,0,1-1.19,3.072,6,6,0,0,1-4.205,1.364,7.327,7.327,0,0,1-1-.058v4.628h-2.9Zm29.922,10.42h-28.6V33.646h28.6v8.349Zm2.511-20.961H62.911v2.957h4.647v2.381H62.911v5.2H59.975V18.633h7.91Z" transform="translate(0)" fill="#fff"/>
  </g>
</svg>
