<svg xmlns="http://www.w3.org/2000/svg" width="24" height="24" viewBox="0 0 24 24">
  <g id="Group_3034" data-name="Group 3034" transform="translate(-731 -740)">
    <path id="Path_2619" data-name="Path 2619" d="M21.6,12A9.6,9.6,0,1,1,12,2.4a9.358,9.358,0,0,1,2.64.36L16.56.84A14.606,14.606,0,0,0,12,0,12,12,0,1,0,24,12Z" transform="translate(755 740) rotate(90)" fill="#fff"/>
    <g id="close-button" transform="translate(738.204 747.204)">
      <g id="close">
        <path id="Path_2623" data-name="Path 2623" d="M10.593,1.059,9.533,0,5.3,4.237,1.059,0,0,1.059,4.237,5.3,0,9.533l1.059,1.059L5.3,6.356l4.237,4.237,1.059-1.059L6.356,5.3Z" fill="#fff" stroke="#fff" stroke-width="1"/>
      </g>
    </g>
  </g>
</svg>
